name C:\Users\u0101727\Documents\MyRepositories\predictivesimulations\OpenSimModel\subject1\EMG\EMG_gait_15.mot
datacolumns 25
datarows 20
range 4.07300000 4.09200000
endheader
time	HamL_r	TA_r	PerL_r	GL_r	HamM_r	Sol_r	VL_r	VM_r	PerB_l	TA_l	PerL_l	GL_l	GM_l	Sol_l	VL_l	VM_l	AddL_l	RF_l	TFL_l	GluMed_l	HamL_l	HamM_l	GluMed_r	RF_r	
          4.07300000	          0.00452603	          0.00392644	          0.01426363	          0.00270013	          0.00898338	          0.00905001	          0.00456573	          0.00296442	          0.06985900	          0.01305559	          0.02101790	          0.06851717	          0.11361881	          0.08301790	          0.00631947	          0.00811319	          0.00520973	          0.00807865	          0.04157286	          0.01993608	          0.00815842	          0.00636336	          0.00458543	          0.00425671	
          4.07400000	          0.00450977	          0.00389837	          0.01417813	          0.00268358	          0.00946601	          0.00906365	          0.00454753	          0.00297557	          0.06944478	          0.01313513	          0.02136469	          0.07041360	          0.11373668	          0.08401816	          0.00630351	          0.00809982	          0.00521016	          0.00813725	          0.04246820	          0.01992337	          0.00792958	          0.00639950	          0.00456638	          0.00425655	
          4.07500000	          0.00449625	          0.00387083	          0.01407976	          0.00266866	          0.00997368	          0.00907520	          0.00452994	          0.00298851	          0.06898056	          0.01321539	          0.02171477	          0.07233807	          0.11384673	          0.08501473	          0.00628492	          0.00808287	          0.00520974	          0.00819668	          0.04336974	          0.01991328	          0.00770859	          0.00644035	          0.00454666	          0.00425821	
          4.07600000	          0.00448561	          0.00384388	          0.01396897	          0.00265545	          0.01050670	          0.00908470	          0.00451307	          0.00300326	          0.06846899	          0.01329605	          0.02206695	          0.07428586	          0.11395127	          0.08600226	          0.00626360	          0.00806242	          0.00520865	          0.00825742	          0.04427658	          0.01990617	          0.00749545	          0.00648550	          0.00452646	          0.00426162	
          4.07700000	          0.00447804	          0.00381763	          0.01384624	          0.00264405	          0.01106527	          0.00909219	          0.00449701	          0.00301980	          0.06791407	          0.01337676	          0.02241998	          0.07625168	          0.11405295	          0.08697558	          0.00623947	          0.00803848	          0.00520708	          0.00831993	          0.04518771	          0.01990231	          0.00729019	          0.00653445	          0.00450595	          0.00426675	
          4.07800000	          0.00447371	          0.00379216	          0.01371207	          0.00263457	          0.01164954	          0.00909765	          0.00448181	          0.00303810	          0.06732056	          0.01345714	          0.02277250	          0.07822976	          0.11415451	          0.08792993	          0.00621249	          0.00801097	          0.00520521	          0.00838463	          0.04610178	          0.01990195	          0.00709286	          0.00658663	          0.00448525	          0.00427350	
          4.07900000	          0.00447279	          0.00376757	          0.01356707	          0.00262710	          0.01225957	          0.00910102	          0.00446752	          0.00305811	          0.06669360	          0.01353679	          0.02312307	          0.08021370	          0.11425812	          0.08886050	          0.00618269	          0.00797980	          0.00520325	          0.00845191	          0.04701714	          0.01990530	          0.00690352	          0.00664147	          0.00446451	          0.00428179	
          4.08000000	          0.00447539	          0.00374395	          0.01341195	          0.00262175	          0.01289527	          0.00910221	          0.00445421	          0.00307975	          0.06603833	          0.01361528	          0.02347010	          0.08219651	          0.11436474	          0.08976198	          0.00615021	          0.00794487	          0.00520134	          0.00852202	          0.04793196	          0.01991245	          0.00672227	          0.00669842	          0.00444383	          0.00429155	
          4.08100000	          0.00448159	          0.00372137	          0.01324747	          0.00261856	          0.01355646	          0.00910100	          0.00444197	          0.00310294	          0.06535967	          0.01369223	          0.02381200	          0.08417091	          0.11447432	          0.09062860	          0.00611517	          0.00790615	          0.00519960	          0.00859519	          0.04884437	          0.01992323	          0.00654919	          0.00675693	          0.00442330	          0.00430266	
          4.08200000	          0.00449144	          0.00369989	          0.01307427	          0.00261757	          0.01424287	          0.00909715	          0.00443087	          0.00312757	          0.06466227	          0.01376723	          0.02414716	          0.08613004	          0.11458651	          0.09145440	          0.00607770	          0.00786360	          0.00519810	          0.00867157	          0.04975245	          0.01993721	          0.00638435	          0.00681652	          0.00440303	          0.00431500	
          4.08300000	          0.00450499	          0.00367958	          0.01289291	          0.00261877	          0.01495412	          0.00909039	          0.00442099	          0.00315347	          0.06395065	          0.01383988	          0.02447389	          0.08806818	          0.11470155	          0.09223352	          0.00603794	          0.00781722	          0.00519687	          0.00875132	          0.05065397	          0.01995373	          0.00622777	          0.00687674	          0.00438306	          0.00432840	
          4.08400000	          0.00452229	          0.00366048	          0.01270396	          0.00262214	          0.01568980	          0.00908039	          0.00441243	          0.00318049	          0.06322918	          0.01390972	          0.02479028	          0.08998073	          0.11482041	          0.09296054	          0.00599602	          0.00776703	          0.00519594	          0.00883451	          0.05154631	          0.01997194	          0.00607946	          0.00693730	          0.00436348	          0.00434269	
          4.08500000	          0.00454338	          0.00364268	          0.01250816	          0.00262764	          0.01644947	          0.00906681	          0.00440526	          0.00320845	          0.06250184	          0.01397627	          0.02509425	          0.09186364	          0.11494443	          0.09363134	          0.00595204	          0.00771303	          0.00519529	          0.00892119	          0.05242642	          0.01999091	          0.00593943	          0.00699807	          0.00434435	          0.00435762	
          4.08600000	          0.00456827	          0.00362630	          0.01230647	          0.00263520	          0.01723279	          0.00904928	          0.00439951	          0.00323718	          0.06177230	          0.01403903	          0.02538378	          0.09371252	          0.11507523	          0.09424385	          0.00590616	          0.00765525	          0.00519488	          0.00901128	          0.05329089	          0.02000969	          0.00580759	          0.00705902	          0.00432573	          0.00437294	
          4.08700000	          0.00459694	          0.00361148	          0.01209997	          0.00264473	          0.01803947	          0.00902742	          0.00439520	          0.00326652	          0.06104434	          0.01409746	          0.02565720	          0.09552235	          0.11521476	          0.09479804	          0.00585860	          0.00759373	          0.00519459	          0.00910463	          0.05413610	          0.02002750	          0.00568385	          0.00712013	          0.00430770	          0.00438838	
          4.08800000	          0.00462936	          0.00359841	          0.01188976	          0.00265614	          0.01886932	          0.00900087	          0.00439232	          0.00329633	          0.06032191	          0.01415097	          0.02591325	          0.09728773	          0.11536561	          0.09529503	          0.00580962	          0.00752853	          0.00519424	          0.00920092	          0.05495820	          0.02004370	          0.00556805	          0.00718136	          0.00429033	          0.00440368	
          4.08900000	          0.00466544	          0.00358725	          0.01167688	          0.00266933	          0.01972224	          0.00896936	          0.00439084	          0.00332649	          0.05960888	          0.01419903	          0.02615112	          0.09900325	          0.11553170	          0.09573613	          0.00575950	          0.00745969	          0.00519361	          0.00929975	          0.05575313	          0.02005777	          0.00545998	          0.00724258	          0.00427367	          0.00441856	
          4.09000000	          0.00470506	          0.00357815	          0.01146242	          0.00268420	          0.02059815	          0.00893277	          0.00439075	          0.00335688	          0.05890895	          0.01424116	          0.02637031	          0.10066395	          0.11571818	          0.09612266	          0.00570849	          0.00738724	          0.00519247	          0.00940061	          0.05651666	          0.02006934	          0.00535942	          0.00730361	          0.00425783	          0.00443279	
          4.09100000	          0.00474809	          0.00357123	          0.01124756	          0.00270068	          0.02149693	          0.00889109	          0.00439198	          0.00338744	          0.05822562	          0.01427701	          0.02657066	          0.10226584	          0.11593050	          0.09645639	          0.00565682	          0.00731118	          0.00519057	          0.00950289	          0.05724472	          0.02007816	          0.00526608	          0.00736419	          0.00424289	          0.00444617	
          4.09200000	          0.00479433	          0.00356656	          0.01103347	          0.00271867	          0.02241826	          0.00884445	          0.00439449	          0.00341812	          0.05756198	          0.01430633	          0.02675245	          0.10380624	          0.11617370	          0.09674034	          0.00560475	          0.00723153	          0.00518766	          0.00960596	          0.05793385	          0.02008402	          0.00517969	          0.00742395	          0.00422900	          0.00445857	
